<svg width="300" height="300" viewBox="0 0 300 300" xmlns="http://www.w3.org/2000/svg" preserveAspectRatio="xMinYMin meet"><defs><filter x="-50%" y="-50%" width="200%" height="200%" filterUnits="objectBoundingBox" id="vulture-site-icon-filter"><feOffset in="SourceAlpha" result="shadowOffsetOuter1"/><feGaussianBlur stdDeviation="12.5" in="shadowOffsetOuter1" result="shadowBlurOuter1"/><feColorMatrix values="0 0 0 0 0 0 0 0 0 0 0 0 0 0 0 0 0 0 0.07 0" in="shadowBlurOuter1" result="shadowMatrixOuter1"/><feMerge><feMergeNode in="shadowMatrixOuter1"/><feMergeNode in="SourceGraphic"/></feMerge></filter></defs><g fill="none"><path d="M186.216 31.24l36.803-13.594 8.812 38.086 39.116 2.557-7.476 38.347 34.715 18.17-22.477 32.063L300 177.51l-33.578 20.166 9.676 37.887-38.89 4.79-6.626 38.584-37.453-11.424L171.376 300l-29.59-25.615-33.14 20.876-16.577-35.43-38.79 5.663-.713-39.084-37.703-10.614 15.264-35.978L0 154.838l28.64-26.662-17.39-35.068 37.067-12.746-1.538-39.058 39.015 3.392 14.5-36.328 34.29 18.93L162.64 0l23.576 31.24z" fill="#20BAED"/><path d="M152.778 226.332c-.687 1.417-2.136 2.536-3.222 2.536-1.11 0-2.535-1.12-3.21-2.536L78.55 83.892c-.65-1.393.038-2.536 1.624-2.536h33.48c1.524 0 3.297 1.168 3.897 2.598l31.307 73.83c.6 1.454 1.573 1.454 2.198 0l31.307-73.83c.612-1.43 2.36-2.598 3.922-2.598h32.67c1.56 0 2.26 1.143 1.622 2.536l-67.798 142.44z" fill="#fff" filter="url(#vulture-site-icon-filter)"/></g></svg>
